<svg xmlns="http://www.w3.org/2000/svg" width="19" height="16" viewBox="0 0 19 16">
    <path d="M18.157 2.722c-.51.741-1.146 1.401-1.875 1.933.012.162.012.324.012.486 0 4.942-3.761 10.636-10.636 10.636-2.118 0-4.086-.613-5.741-1.678.3.034.59.046.903.046 1.747 0 3.356-.59 4.641-1.597-1.643-.035-3.02-1.111-3.495-2.592.232.034.463.057.706.057.335 0 .671-.046.984-.127C1.943 9.539.658 8.034.658 6.217V6.17c.498.278 1.076.451 1.69.475C1.34 5.975.68 4.828.68 3.532c0-.695.185-1.331.51-1.887 1.84 2.268 4.606 3.75 7.708 3.912-.058-.278-.093-.567-.093-.856 0-2.06 1.667-3.739 3.738-3.739 1.077 0 2.05.451 2.732 1.181.845-.162 1.654-.475 2.372-.903-.278.868-.868 1.597-1.644 2.06.753-.08 1.482-.29 2.153-.579v.001z"/>
</svg>
