<svg xmlns="http://www.w3.org/2000/svg" width="18" height="19" viewBox="0 0 18 19">
    <path d="M11.852 9.37c0-1.631-1.331-2.963-2.963-2.963-1.632 0-2.963 1.332-2.963 2.963 0 1.632 1.331 2.963 2.963 2.963 1.632 0 2.963-1.33 2.963-2.963zm1.597 0c0 2.523-2.037 4.56-4.56 4.56-2.523 0-4.56-2.037-4.56-4.56 0-2.523 2.037-4.56 4.56-4.56 2.523 0 4.56 2.037 4.56 4.56zm1.25-4.745c0 .59-.475 1.065-1.064 1.065-.59 0-1.065-.475-1.065-1.065s.475-1.064 1.065-1.064 1.064.475 1.064 1.064zM8.89 2.08c-1.296 0-4.074-.105-5.243.358-.405.162-.706.359-1.019.671-.312.313-.51.613-.67 1.019-.464 1.169-.36 3.946-.36 5.243 0 1.296-.104 4.074.36 5.243.162.405.358.706.67 1.018.313.313.614.51 1.019.671 1.169.463 3.947.359 5.243.359 1.296 0 4.074.104 5.243-.359.405-.162.706-.358 1.018-.67.313-.313.51-.614.671-1.02.463-1.168.359-3.946.359-5.242 0-1.297.104-4.074-.359-5.243-.162-.406-.358-.706-.67-1.019-.313-.312-.614-.51-1.02-.671-1.168-.463-3.946-.358-5.242-.358zm8.889 7.291c0 1.227.012 2.443-.058 3.67-.07 1.423-.393 2.684-1.435 3.726-1.041 1.041-2.303 1.366-3.726 1.435-1.227.07-2.443.058-3.67.058-1.226 0-2.442.011-3.668-.058-1.424-.07-2.685-.394-3.727-1.435C.453 15.724.128 14.463.06 13.039-.01 11.813.001 10.597.001 9.37c0-1.226-.011-2.442.058-3.669.07-1.423.394-2.685 1.435-3.726C2.536.933 3.797.609 5.221.54 6.447.47 7.663.482 8.89.482c1.226 0 2.442-.012 3.669.058 1.423.07 2.685.393 3.726 1.435 1.042 1.041 1.366 2.303 1.435 3.726.07 1.227.058 2.443.058 3.67z"/>
</svg>
