<svg xmlns="http://www.w3.org/2000/svg" width="19" height="18" viewBox="0 0 19 18">
    <path d="M4.336 5.753v11.47H.516V5.752h3.82zm.243-3.543c.011 1.1-.822 1.98-2.153 1.98h-.023C1.119 4.19.296 3.31.296 2.21c0-1.123.857-1.979 2.153-1.979 1.308 0 2.118.856 2.13 1.98zm13.495 8.438v6.574h-3.808v-6.134c0-1.54-.556-2.592-1.933-2.592-1.053 0-1.678.705-1.956 1.388-.093.255-.127.59-.127.938v6.401H6.44c.047-10.393 0-11.47 0-11.47h3.809V7.42h-.023c.497-.787 1.4-1.933 3.46-1.933 2.512 0 4.387 1.644 4.387 5.163v-.002z"/>
</svg>
