<svg xmlns="http://www.w3.org/2000/svg" width="40" height="32" viewBox="0 0 40 32">
    <path fill="#FFF" fill-rule="evenodd" d="M0 21.76C0 28.32 3.952 32 8.395 32c3.95 0 6.912-3.2 6.912-6.88 0-3.84-2.797-6.72-6.582-6.72-.495 0-1.648.16-1.811.32.33-5.12 4.444-11.36 9.712-14.88L11.688 0C5.432 4.48 0 12.8 0 21.76zm23.376 0c0 6.56 3.784 10.24 8.229 10.24 4.115 0 7.078-3.2 7.078-6.88 0-3.84-2.798-6.72-6.584-6.72-.659 0-1.648.16-1.811.32.33-5.12 4.445-11.36 9.712-14.88L35.062 0c-6.42 4.48-11.688 12.8-11.688 21.76h.002z" opacity=".301"/>
</svg>
