<svg xmlns="http://www.w3.org/2000/svg" xmlns:xlink="http://www.w3.org/1999/xlink" width="46" height="46" viewBox="0 0 46 46">
    <defs>
        <filter id="prefix__a" width="125%" height="125%" x="-10%" y="-10%" filterUnits="objectBoundingBox">
            <feOffset dx="1" dy="1" in="SourceAlpha" result="shadowOffsetOuter1"/>
            <feGaussianBlur in="shadowOffsetOuter1" result="shadowBlurOuter1" stdDeviation="1.5"/>
            <feColorMatrix in="shadowBlurOuter1" values="0 0 0 0 0 0 0 0 0 0 0 0 0 0 0 0 0 0 0.196557971 0"/>
        </filter>
        <circle id="prefix__b" cx="20" cy="20" r="20"/>
    </defs>
    <g fill="none" transform="translate(2 2)">
        <use fill="#000" filter="url(#prefix__a)" xlink:href="#prefix__b"/>
        <use fill="#FFF" xlink:href="#prefix__b"/>
        <g fill="#000" stroke="#000">
            <path d="M.817 8.956c-.11-.004-.206-.07-.249-.166-.042-.098-.022-.21.05-.288l3.909-3.769c.036-.034.056-.08.056-.13 0-.048-.02-.095-.056-.13L.619.693C.508.585.508.412.619.305c.11-.107.29-.107.4 0l3.909 3.769c.293.284.293.743 0 1.027L1.015 8.875c-.053.051-.124.08-.198.081h0z" transform="translate(18.286 14.857)"/>
        </g>
    </g>
</svg>
