<svg xmlns="http://www.w3.org/2000/svg" width="90" height="23" viewBox="0 0 90 23">
    <g fill="none">
        <path fill="#000" d="M23.649 7.85h9.1v1.7h-3.583v9.576h-1.964V9.549h-3.568l.015-1.698zm8.711 3.113h1.68v1.578h.03c.06-.225.164-.436.314-.646.15-.21.33-.406.555-.572.21-.18.45-.315.72-.42.255-.106.525-.166.794-.166.21 0 .36.015.435.015.075.015.165.03.24.03v1.73c-.12-.03-.255-.046-.39-.061s-.255-.03-.39-.03c-.3 0-.584.06-.854.18s-.495.301-.705.527c-.195.24-.36.526-.48.871-.12.346-.18.752-.18 1.203v3.879H32.33l.03-8.118zm13.015 8.163h-1.77v-1.143h-.03c-.224.421-.554.737-.989.993-.435.255-.885.376-1.335.376-1.064 0-1.844-.256-2.324-.797-.48-.526-.72-1.338-.72-2.406v-5.186h1.8v5.006c0 .722.135 1.233.42 1.518.27.301.66.451 1.154.451.375 0 .69-.06.945-.18s.465-.27.615-.466c.165-.196.27-.436.345-.707.075-.27.105-.571.105-.887v-4.735h1.799v8.163h-.015zm3.059-2.616c.06.526.255.887.6 1.113.344.21.764.315 1.244.315.165 0 .36-.015.57-.045.21-.03.42-.075.6-.15.194-.075.344-.18.464-.33.12-.151.18-.332.165-.557-.015-.226-.09-.421-.255-.571-.165-.15-.36-.256-.6-.361-.24-.09-.524-.166-.84-.226-.314-.06-.629-.135-.959-.21-.33-.075-.66-.166-.974-.27-.315-.106-.585-.241-.84-.437-.24-.18-.45-.406-.585-.691-.15-.286-.225-.617-.225-1.038 0-.45.105-.811.33-1.112.21-.3.495-.541.825-.722.33-.18.705-.315 1.11-.39.404-.076.794-.106 1.154-.106.42 0 .825.045 1.2.135.374.09.734.226 1.034.436.315.196.57.466.765.782.21.316.33.707.39 1.158h-1.875c-.09-.436-.285-.722-.584-.872-.315-.15-.66-.226-1.065-.226-.12 0-.285.015-.45.03-.18.03-.33.06-.495.12-.15.06-.285.151-.39.256-.104.105-.164.256-.164.436 0 .226.075.391.224.526.15.136.345.24.6.346.24.09.525.166.84.226.315.06.645.135.975.21.33.075.644.166.96.27.314.106.599.241.839.437.24.18.45.406.6.676.15.27.224.617.224 1.008 0 .48-.104.887-.33 1.232-.224.331-.51.617-.854.827-.345.21-.75.361-1.17.466-.434.09-.854.15-1.274.15-.51 0-.99-.06-1.425-.18-.434-.12-.824-.3-1.14-.526-.314-.24-.569-.526-.749-.887-.18-.346-.285-.767-.3-1.263h1.815v.015h.015zm5.922-5.547h1.365V8.497h1.799v2.45h1.62v1.339h-1.62v4.36c0 .195.015.345.03.496.015.135.06.255.105.345.06.09.15.166.255.21.12.046.27.076.48.076.12 0 .255 0 .374-.015.12-.015.255-.03.375-.06v1.398c-.195.03-.39.045-.584.06-.195.03-.375.03-.585.03-.48 0-.855-.045-1.14-.135-.285-.09-.51-.226-.674-.391-.165-.18-.27-.39-.33-.646s-.09-.572-.105-.902V12.3h-1.365v-1.368.03zm6.043 0h1.694v1.112h.03c.255-.48.6-.812 1.05-1.022.45-.21.93-.316 1.47-.316.644 0 1.199.105 1.678.346.48.225.87.526 1.185.932.315.39.555.857.705 1.383.15.526.24 1.098.24 1.684 0 .556-.075 1.082-.21 1.594-.15.51-.36.977-.645 1.368-.285.39-.645.706-1.095.947-.45.24-.96.36-1.559.36-.255 0-.525-.03-.78-.075s-.51-.12-.75-.225c-.24-.105-.464-.24-.66-.406-.209-.165-.374-.36-.509-.571h-.03v4.074h-1.8V10.963H60.4zm6.282 4.089c0-.36-.045-.722-.15-1.068-.09-.345-.24-.646-.434-.917-.195-.27-.435-.48-.705-.646-.285-.165-.615-.24-.975-.24-.75 0-1.32.255-1.71.781-.374.526-.569 1.233-.569 2.105 0 .42.045.797.15 1.142.105.346.24.647.45.903.195.255.435.45.72.6.285.151.6.226.974.226.42 0 .75-.09 1.035-.255.285-.166.51-.391.705-.647.18-.27.314-.571.39-.917.074-.36.12-.706.12-1.067zm3.164-7.201h1.8v1.698h-1.8V7.851zm0 3.112h1.8v8.163h-1.8v-8.163zM73.25 7.85h1.799v11.275h-1.8V7.851zm7.287 11.5c-.645 0-1.23-.105-1.74-.33-.51-.226-.93-.511-1.289-.887-.345-.376-.615-.842-.795-1.368-.18-.526-.285-1.113-.285-1.73 0-.616.09-1.187.285-1.713.18-.526.45-.977.795-1.368.345-.376.78-.677 1.29-.887.51-.21 1.094-.33 1.739-.33s1.23.104 1.74.33c.509.21.929.511 1.289.887.344.376.614.842.794 1.368.18.526.285 1.097.285 1.714 0 .631-.09 1.203-.285 1.729-.195.526-.45.977-.794 1.368-.345.376-.78.676-1.29.887-.51.21-1.08.33-1.74.33zm0-1.428c.39 0 .75-.09 1.034-.255.3-.166.525-.391.72-.662.195-.27.33-.586.42-.917.09-.346.135-.691.135-1.052 0-.346-.045-.692-.135-1.038-.09-.345-.225-.646-.42-.917-.195-.27-.435-.48-.72-.646-.3-.165-.644-.256-1.034-.256s-.75.09-1.035.256c-.3.165-.525.39-.72.646-.194.271-.33.572-.42.917-.09.346-.134.692-.134 1.038 0 .36.045.706.135 1.052.09.346.225.647.42.917.194.27.434.496.72.662.3.18.644.255 1.034.255zm4.648-6.96h1.364V8.497h1.8v2.45h1.619v1.339h-1.62v4.36c0 .195.016.345.03.496.016.135.06.255.106.345.06.09.15.166.255.21.12.046.27.076.48.076.12 0 .254 0 .374-.015s.255-.03.375-.06v1.398c-.195.03-.39.045-.585.06-.195.03-.375.03-.585.03-.48 0-.854-.045-1.14-.135-.284-.09-.509-.226-.674-.391-.165-.18-.27-.39-.33-.646s-.09-.572-.105-.902V12.3h-1.364v-1.368.03z"/>
        <path fill="#00B67A" d="M21.549 7.851L13.318 7.851 10.784 0.003 8.235 7.851 0.003 7.836 6.66 12.692 4.111 20.539 10.769 15.683 17.426 20.539 14.892 12.692z"/>
        <path fill="#005128" d="M15.462 14.466L14.892 12.692 10.784 15.683z"/>
    </g>
</svg>
