<svg xmlns="http://www.w3.org/2000/svg" width="210" height="30" viewBox="0 0 210 30">
    <g fill="#FFF">
        <path d="M203.3 29.809L195 25.24l-8.3 4.568c-.831.457-1.379.058-1.225-.896l1.59-9.698-6.677-6.814c-.667-.68-.454-1.352.48-1.49l9.214-1.401 4.177-8.86c.411-.87 1.075-.87 1.485 0l4.176 8.86 9.214 1.4c.934.14 1.147.81.48 1.491l-6.677 6.814 1.59 9.698c.152.954-.396 1.355-1.226.896zM158.3 29.809L150 25.24l-8.3 4.568c-.831.457-1.379.058-1.225-.896l1.59-9.698-6.677-6.814c-.667-.68-.454-1.352.48-1.49l9.214-1.401 4.177-8.86c.411-.87 1.075-.87 1.485 0l4.176 8.86 9.214 1.4c.934.14 1.147.81.48 1.491l-6.677 6.814 1.59 9.698c.152.954-.396 1.355-1.226.896zM113.3 29.809L105 25.24l-8.3 4.568c-.831.457-1.379.058-1.225-.896l1.59-9.698-6.677-6.814c-.667-.68-.454-1.352.48-1.49l9.214-1.401 4.177-8.86c.411-.87 1.075-.87 1.485 0l4.176 8.86 9.214 1.4c.933.14 1.147.81.48 1.491l-6.677 6.814 1.59 9.698c.152.954-.396 1.355-1.226.896zM68.3 29.809L60 25.24l-8.3 4.568c-.831.457-1.379.058-1.225-.896l1.59-9.698-6.677-6.814c-.667-.68-.454-1.352.48-1.49l9.214-1.401L59.259.65c.411-.87 1.075-.87 1.485 0l4.176 8.86 9.214 1.4c.933.14 1.147.81.48 1.491l-6.677 6.814 1.59 9.698c.152.954-.396 1.355-1.226.896zM23.3 29.809L15 25.24 6.7 29.81c-.831.457-1.379.058-1.225-.896l1.59-9.698-6.677-6.814c-.667-.68-.454-1.352.48-1.49l9.214-1.401L14.259.65c.411-.87 1.075-.87 1.485 0l4.176 8.86 9.214 1.4c.933.14 1.147.81.48 1.491l-6.677 6.814 1.59 9.698c.152.954-.396 1.355-1.226.896z"/>
    </g>
</svg>
