<svg xmlns="http://www.w3.org/2000/svg" width="40" height="32" viewBox="0 0 40 32">
    <path fill="#FFF" fill-rule="evenodd" d="M40 21.76C40 28.32 36.048 32 31.605 32c-3.95 0-6.912-3.2-6.912-6.88 0-3.84 2.797-6.72 6.582-6.72.495 0 1.648.16 1.811.32-.33-5.12-4.444-11.36-9.712-14.88L28.312 0C34.568 4.48 40 12.8 40 21.76zm-23.376 0c0 6.56-3.784 10.24-8.229 10.24-4.115 0-7.078-3.2-7.078-6.88 0-3.84 2.798-6.72 6.584-6.72.659 0 1.648.16 1.811.32C9.382 13.6 5.267 7.36 0 3.84L4.938 0c6.42 4.48 11.688 12.8 11.688 21.76h-.002z" opacity=".302"/>
</svg>
