<svg xmlns="http://www.w3.org/2000/svg" width="20" height="17" viewBox="0 0 20 17">
    <g fill="#16B8E0">
        <path d="M16.188.375c-4.063-.5-8.25-.5-12.313 0C1.625.625 0 2.5 0 4.688v1.75L1 7.5h1.5v6.875c0 1.375 1.125 2.5 2.5 2.5h10c1.375 0 2.5-1.125 2.5-2.5V7.5H19l1-1V4.687C20 2.5 18.375.625 16.187.375zm.062 14c0 .688-.563 1.25-1.25 1.25H5c-.688 0-1.25-.563-1.25-1.25V7.5H5.5l.938-.813.437-1.937c.063-.25.25-.375.438-.375h5.375c.187 0 .374.125.437.375l.438 2 .937.75h1.75v6.875zM18.75 6l-.25.25h-3.563l-.25-.188-.312-1.562c-.188-.813-.875-1.375-1.688-1.375H7.314c-.813 0-1.5.563-1.688 1.375L5.375 6l-.313.25H1.5l-.25-.313v-1.25C1.25 3.125 2.438 1.75 4 1.563c4-.5 8-.5 12 0 1.563.25 2.75 1.563 2.75 3.125V6z"/>
        <path d="M6.875 7.5H8.125V8.75H6.875zM6.875 10H8.125V11.25H6.875zM6.875 12.5H8.125V13.75H6.875zM9.375 7.5H10.625V8.75H9.375zM9.375 10H10.625V11.25H9.375zM9.375 12.5H10.625V13.75H9.375zM11.875 7.5H13.125V8.75H11.875zM11.875 10H13.125V11.25H11.875zM11.875 12.5H13.125V13.75H11.875z"/>
    </g>
</svg>
