<svg xmlns="http://www.w3.org/2000/svg" width="20" height="20" viewBox="0 0 20 20">
    <path fill="#FEDE5F" fill-rule="evenodd" d="M19.327 7.17l-6.034-.92L10.59.518C10.437.172 10.24 0 10 0s-.437.172-.589.517L6.707 6.25l-6.034.92C.224 7.246 0 7.439 0 7.75c0 .176.1.378.3.604l4.376 4.462-1.034 6.3c-.016.118-.024.203-.024.253 0 .176.042.325.126.447.084.122.21.183.379.183.144 0 .304-.05.48-.151L10 16.874l5.397 2.975c.168.1.329.151.48.151.161 0 .283-.06.367-.183.084-.122.126-.27.126-.447 0-.11-.004-.193-.012-.252l-1.034-6.301 4.363-4.462c.209-.218.313-.42.313-.605 0-.31-.224-.504-.673-.58z"/>
</svg>
