<svg xmlns="http://www.w3.org/2000/svg" width="160" height="19" viewBox="0 0 160 19">
    <g fill="none" fill-rule="evenodd">
        <path fill="#000" fill-rule="nonzero" d="M28.347 18.286c3.268 0 5.255-1.6 5.255-4.303 0-2.23-1.49-3.148-4.627-3.961l-1.543-.368c-.392-.105-.47-.157-.758-.262-.418-.236-.627-.55-.627-1.05 0-.996.706-1.495 2.091-1.495 1.412 0 2.17.63 2.3 1.915l2.929-.157c-.288-2.519-2.091-4.276-5.15-4.276-3.216 0-5.098 1.626-5.098 4.066 0 1.286.392 2.151 1.333 2.755.497.288.967.498 1.412.656.444.157 1.098.34 1.908.524 1.177.289 1.935.525 2.327.761.392.236.575.604.575 1.128 0 .971-.915 1.522-2.274 1.522-1.595 0-2.458-.656-2.615-1.941l-2.928.183c.314 2.702 2.327 4.303 5.49 4.303zm10.737-.263v-7.686c0-1.89 1.255-3.28 3.059-3.28 1.595 0 2.693 1.26 2.693 3.253v7.713h2.954V9.838c.183-1.653 1.255-2.78 2.902-2.78 1.778 0 2.797 1.232 2.797 3.252v7.713h2.955V9.864c0-1.652-.471-2.99-1.386-4.014-.915-1.023-2.144-1.521-3.634-1.521-1.987 0-3.451.813-4.366 2.44-.89-1.627-2.3-2.44-4.262-2.44-1.804 0-3.11.682-3.869 2.02V4.565h-2.771v13.458h2.928zm24.227.263c1.385 0 2.614-.499 3.634-1.47v1.207h2.954V9.654c0-3.436-1.909-5.325-5.36-5.325-1.594 0-2.902.472-3.869 1.443-.967.944-1.464 2.046-1.464 3.305l2.954.105c0-1.285.837-2.282 2.406-2.282 1.594 0 2.379.944 2.379 2.807v.393l-3.19.184c-3.268.184-4.915 1.548-4.915 4.066 0 2.493 1.752 3.936 4.47 3.936zm.496-2.466c-1.333 0-2.013-.499-2.013-1.522 0-1.076.785-1.653 2.38-1.731l2.797-.184v.472c0 1.968-1.203 2.965-3.164 2.965zm12.253 2.203v-7.32c0-1.993 1.464-3.436 3.739-3.436v-2.86c-1.909 0-3.164.683-3.817 2.047v-1.89h-2.85v13.46h2.928zm10.998.21c.654 0 1.307-.052 1.961-.157v-2.624c-.523.08-.941.132-1.255.132-1.49 0-2.222-.761-2.222-2.31l.026-6.164h3.425V4.565h-3.399L85.62 0h-2.954l-.026 4.565h-2.484V7.11h2.484l-.026 6.768c-.026 2.939 1.699 4.355 4.444 4.355zm9.795.053c3.268 0 5.674-1.915 6.197-4.959l-2.876-.262c-.288 1.679-1.517 2.676-3.32 2.676-2.197 0-3.74-1.68-3.74-4.434 0-2.807 1.517-4.46 3.74-4.46 1.777 0 3.084 1.076 3.294 2.834l2.875-.263c-.444-3.148-2.902-5.09-6.17-5.09-1.986 0-3.607.63-4.862 1.863-1.23 1.233-1.857 2.939-1.857 5.116 0 2.151.628 3.857 1.883 5.116 1.255 1.233 2.876 1.863 4.836 1.863zm12.149 0c1.385 0 2.614-.499 3.634-1.47v1.207h2.954V9.654c0-3.436-1.909-5.325-5.36-5.325-1.594 0-2.902.472-3.869 1.443-.967.944-1.464 2.046-1.464 3.305l2.954.105c0-1.285.837-2.282 2.406-2.282 1.594 0 2.379.944 2.379 2.807v.393l-3.19.184c-3.268.184-4.915 1.548-4.915 4.066 0 2.493 1.752 3.936 4.47 3.936zm.496-2.466c-1.333 0-2.013-.499-2.013-1.522 0-1.076.785-1.653 2.38-1.731l2.797-.184v.472c0 1.968-1.203 2.965-3.164 2.965zm12.253 2.203v-7.32c0-1.993 1.464-3.436 3.739-3.436v-2.86c-1.909 0-3.164.683-3.817 2.047v-1.89h-2.85v13.46h2.928zm11.364.263c1.517 0 2.85-.42 3.974-1.233 1.124-.814 1.83-1.837 2.092-3.07l-2.955-.157c-.392 1.285-1.438 1.915-3.19 1.915-2.065 0-3.45-1.312-3.58-3.332h9.855v-1.443c0-2.046-.575-3.673-1.699-4.853-1.124-1.18-2.667-1.784-4.575-1.784-1.987 0-3.608.63-4.837 1.889-1.229 1.233-1.856 2.938-1.856 5.09 0 2.15.627 3.856 1.882 5.115 1.255 1.233 2.876 1.863 4.89 1.863zm3.242-8.186h-6.876c.13-2.072 1.543-3.253 3.53-3.253 2.117 0 3.268 1.26 3.346 3.253zm8.41 7.923v-7.32c0-1.993 1.464-3.436 3.738-3.436v-2.86c-1.908 0-3.163.683-3.817 2.047v-1.89h-2.85v13.46h2.929zm9.978.263c3.268 0 5.255-1.6 5.255-4.303 0-2.23-1.49-3.148-4.627-3.961l-1.543-.368c-.392-.105-.47-.157-.758-.262-.418-.236-.628-.55-.628-1.05 0-.996.706-1.495 2.092-1.495 1.412 0 2.17.63 2.3 1.915l2.929-.157c-.288-2.519-2.092-4.276-5.15-4.276-3.216 0-5.099 1.626-5.099 4.066 0 1.286.392 2.151 1.334 2.755.496.288.967.498 1.411.656.445.157 1.098.34 1.909.524 1.176.289 1.935.525 2.327.761.392.236.575.604.575 1.128 0 .971-.915 1.522-2.275 1.522-1.594 0-2.457-.656-2.614-1.941l-2.928.183c.314 2.702 2.327 4.303 5.49 4.303z"/>
        <g transform="translate(0 2.286)">
            <path fill="#FC8626" fill-rule="nonzero" d="M15.332 16.73c1.398 0 2.66-.842 3.194-2.134.536-1.292.24-2.78-.749-3.768-.989-.989-2.476-1.285-3.768-.75-1.292.535-2.134 1.796-2.134 3.195.002 1.908 1.549 3.455 3.457 3.457z"/>
            <path fill="#F04D5D" fill-rule="nonzero" d="M15.332 6.915c1.398 0 2.66-.842 3.194-2.134.536-1.292.24-2.78-.749-3.768-.989-.989-2.476-1.285-3.768-.75-1.292.535-2.134 1.796-2.134 3.194.002 1.909 1.549 3.455 3.457 3.458z"/>
            <circle cx="5.538" cy="8.202" r="5.538" fill="#16B8E0"/>
        </g>
    </g>
</svg>
