<svg xmlns="http://www.w3.org/2000/svg" width="54" height="54" viewBox="0 0 54 54">
    <g fill="none" fill-rule="evenodd" transform="translate(2 2)">
        <circle cx="25" cy="25" r="25" stroke="#000" stroke-width="2.5"/>
        <path fill="#000" fill-rule="nonzero" d="M28.604 25.65c.898.603 1.656 1.43 2.273 2.483.618 1.053.927 2.365.927 3.937 0 1.965-.597 3.565-1.79 4.8-1.193 1.235-2.758 1.965-4.695 2.19v4.168h-1.768V39.06c-1.347-.113-2.632-.464-3.853-1.053-.796-.384-1.53-.828-2.2-1.332l1.35-1.349c1.766 1.254 3.586 1.881 5.46 1.881 1.713 0 3.025-.45 3.938-1.347.912-.899 1.368-2.106 1.368-3.621 0-1.235-.267-2.274-.8-3.116-.496-.783-1.101-1.433-1.816-1.949l1.559-1.556.047.031zM25.319 7.06v4.168c1.235.084 2.302.386 3.2.905.899.52 1.769 1.228 2.61 2.127l-1.262 1.305c-.899-.898-1.72-1.544-2.463-1.937-.744-.393-1.706-.59-2.885-.59-1.403 0-2.554.443-3.452 1.327-.899.884-1.348 2.014-1.348 3.39 0 1.038.239 1.908.716 2.61s1.074 1.284 1.79 1.747c.25.162.53.331.84.509l-1.499 1.498c-.417-.247-.787-.48-1.11-.701-.8-.548-1.48-1.27-2.042-2.169-.561-.898-.842-2.02-.842-3.368 0-1.769.554-3.263 1.663-4.485 1.109-1.22 2.547-1.943 4.316-2.168V7.06h1.768z"/>
        <path fill="#000" d="M23.684 0L26.184 0 26.184 50 23.684 50z" transform="rotate(45 24.934 25)"/>
    </g>
</svg>
