<svg xmlns="http://www.w3.org/2000/svg" width="49" height="48" viewBox="0 0 49 48">
    <g fill="none" fill-rule="evenodd">
        <g>
            <path stroke="#000" stroke-linecap="round" stroke-linejoin="round" stroke-width="2.5" d="M45.616 10.537c-.098-.49-.703-.673-1.056-.321l-5.469 5.467-5.288 1.095-4.466-4.465 1.096-5.288L35.9 1.557c.353-.353.17-.96-.321-1.057-4.059-.802-8.39.364-11.521 3.497-3.667 3.664-2.759 10.25-2.257 12.707L2.638 33.396c-2.78 2.78-2.779 7.301 0 10.081 2.747 2.745 7.245 2.838 10.111-.031l16.663-19.13c4.258.88 9.636.815 12.708-2.256 3.019-3.02 4.326-7.328 3.496-11.523z" transform="translate(0 -2) translate(1 3.083)"/>
            <path fill="#000" d="M10.584 39.879c-1.173 1.17-3.072 1.17-4.244-.003-1.17-1.172-1.17-3.07 0-4.242v-.001c1.172-1.173 3.073-1.173 4.245-.001 1.17 1.172 1.17 3.073 0 4.245l-.001.002z" transform="translate(0 -2) translate(1 3.083)"/>
        </g>
        <path d="M0 0H50V50H0z" transform="translate(0 -2)"/>
    </g>
</svg>
