<svg xmlns="http://www.w3.org/2000/svg" width="54" height="51" viewBox="0 0 54 51">
    <g>
        <path stroke="#000" d="M19.432.896C11.312 3.176 4.926 9.33 2.6 17.307c-1.505.228-2.6 1.505-2.6 3.009v8.753c0 1.686 1.414 3.054 3.102 3.054h.32c1.732 0 3.1-1.368 3.1-3.054v-8.753c0-1.413-1.048-2.735-2.462-2.963C7.8 5.546 20.618-1.155 32.705 2.492c7.299 2.188 13 7.704 15.19 14.815-1.414.32-2.463 1.55-2.463 2.963v8.753c0 1.23.775 2.416 1.961 2.872-2.6 6.564-8.21 11.533-15.098 13.493-.456-.456-1.05-.775-1.688-.775h-8.895c-1.231 0-2.28.958-2.28 2.189v.182c0 1.23 1.049 2.28 2.28 2.28h8.895c1.232 0 2.28-1.05 2.28-2.189v-.365c7.345-2.142 13.274-7.521 16.011-14.587 1.734 0 3.102-1.368 3.102-3.054v-8.753c0-1.504-1.095-2.735-2.6-3.009C45.75 4.68 32.295-2.659 19.432.897zM3.467 30.756h-.274c-.912 0-1.688-.776-1.688-1.687v-8.753c0-.593.274-1.094.776-1.368.273-.182.593-.273.958-.273h.593c.73.137 1.277.775 1.277 1.641v8.753h.045c0 .911-.775 1.686-1.687 1.686zm47.165-1.687c0 .729-.502 1.367-1.232 1.64-.137.046-.32.046-.456.046h-.32c-.273 0-.456-.045-.73-.137-.592-.273-.957-.82-1.048-1.504v-8.798c0-.775.638-1.504 1.414-1.641h.593c.319 0 .638.137.958.273.456.32.775.775.775 1.277v8.844h.046z" transform="translate(1 1)"/>
        <path d="M23.674 31.04l-7.8-.045c4.287-3.345 7.754-6.282 7.754-9.491.046-1.22-.502-2.44-1.55-3.209-.959-.633-2.1-1.04-3.24-.95-1.96-.044-3.831.77-5.063 2.26l-.045.046.958.904.045-.045c.958-1.22 2.463-1.944 4.106-1.853 1.642 0 3.375.813 3.375 2.892 0 2.757-3.375 5.604-8.53 9.627v1.084h10.08l-.09-1.22zM33.618 17.333l-6.706 9.491v1.22h7.162v3.933h1.414v-3.978h2.19v-1.265h-2.19v-9.4h-1.87zm-5.2 9.446l5.656-7.954v7.954h-5.656z" transform="translate(1 1)"/>
    </g>
</svg>
