<svg xmlns="http://www.w3.org/2000/svg" xmlns:xlink="http://www.w3.org/1999/xlink" width="84" height="84" viewBox="0 0 84 84">
    <defs>
        <filter id="prefix__a" width="117.1%" height="117.1%" x="-8.6%" y="-7.2%" filterUnits="objectBoundingBox">
            <feOffset dy="1" in="SourceAlpha" result="shadowOffsetOuter1"/>
            <feGaussianBlur in="shadowOffsetOuter1" result="shadowBlurOuter1" stdDeviation="2"/>
            <feColorMatrix in="shadowBlurOuter1" values="0 0 0 0 0 0 0 0 0 0 0 0 0 0 0 0 0 0 0.15701486 0"/>
        </filter>
        <circle id="prefix__b" cx="38" cy="38" r="38"/>
    </defs>
    <g fill="none" fill-rule="evenodd" transform="translate(4 3)">
        <use fill="#000" filter="url(#prefix__a)" xlink:href="#prefix__b"/>
        <use fill="#FFF" xlink:href="#prefix__b"/>
        <g fill="#16B8E0">
            <path d="M22 0c4.418 0 8 3.582 8 8v9.636c0 3.725-2.571 6.957-6.201 7.795l-6.766 1.561c-.022.005-.043.014-.062.026l-9.86 6.275c-.233.148-.542.08-.69-.153-.077-.121-.099-.269-.06-.406l1.593-5.574c.027-.093-.016-.191-.102-.234L4 25c-2.451-1.226-4-3.731-4-6.472V8c0-4.418 3.582-8 8-8h14zM10.124 7c-.23 0-.603.086-.918.431C8.89 7.776 8 8.609 8 10.304c0 1.694 1.234 3.332 1.406 3.562.173.23 2.383 3.819 5.885 5.2 2.91 1.147 3.501.918 4.133.86.631-.056 2.038-.832 2.325-1.636.287-.805.287-1.494.2-1.638-.085-.144-.315-.23-.66-.402-.344-.172-2.037-1.006-2.353-1.12-.316-.115-.546-.173-.775.172-.23.345-.89 1.12-1.09 1.35-.202.23-.403.259-.747.087-.344-.173-1.454-.537-2.77-1.71-1.024-.913-1.715-2.04-1.916-2.385-.201-.345-.022-.531.151-.703.155-.154.345-.402.517-.603.172-.201.23-.345.344-.575.115-.23.057-.43-.029-.603-.086-.172-.755-1.876-1.062-2.557-.258-.573-.53-.585-.775-.595-.2-.009-.43-.008-.66-.008z" transform="translate(24 23)"/>
        </g>
    </g>
</svg>
