<svg xmlns="http://www.w3.org/2000/svg" width="53" height="52" viewBox="0 0 53 52">
    <g fill="none" fill-rule="evenodd">
        <g stroke="#000" stroke-width="3">
            <path fill-rule="nonzero" d="M20.923 0c3.754 0 6.77 3.015 6.77 6.77 0 3.753-3.016 6.768-6.77 6.768-3.754 0-6.77-3.015-6.77-6.769S17.17 0 20.924 0M41.846 14.154v25.292c-7.754.123-18.337 8.139-20.923 8.139-2.586 0-13.17-8.016-20.923-8.139V14.154c7.63.123 14.892 3.138 20.492 8.37l.431.368.43-.369c5.6-5.23 12.862-8.185 20.493-8.37h1.491" transform="translate(2 2)"/>
            <path stroke-linecap="round" d="M21.231 32.077L21.231 36.077" transform="translate(2 2)"/>
        </g>
        <path fill="#01C1AE" d="M42.5 26c-4.694 0-8.5 3.806-8.5 8.5V42c0 .552.448 1 1 1h7.5c4.694 0 8.5-3.806 8.5-8.5S47.194 26 42.5 26z" transform="translate(2 2)"/>
    </g>
</svg>
