<svg xmlns="http://www.w3.org/2000/svg" width="59" height="45" viewBox="0 0 59 45">
    <g fill="none" fill-rule="evenodd" transform="translate(2 2)">
        <g stroke="#000" stroke-width="3">
            <path stroke-linecap="round" d="M.64 9.84V6.104c0-3.313 2.686-6 6-6h10.37c1.925 0 3.733.924 4.861 2.483l2.449 3.385H42c3.314 0 6 2.686 6 6V35.43c0 3.314-2.686 6-6 6H6.467c-3.245 0-5.902-2.58-5.997-5.825l-.107-3.673h0"/>
            <path d="M27.222 18.772c-1.045-1.03-2.723-1.03-3.77 0l-.948.937-.947-.937c-1.048-1.027-2.725-1.027-3.775 0-.531.523-.816 1.25-.779 1.997-.037 2.734 5.5 7.322 5.5 7.322s5.535-4.584 5.5-7.325c.037-.745-.247-1.471-.781-1.994z"/>
            <path stroke-linecap="round" d="M0.64 19.24L0.64 23.24"/>
        </g>
        <circle cx="48.5" cy="33.5" r="8.5" fill="#F69A49"/>
    </g>
</svg>
